<mxfile host="app.diagrams.net" modified="2023-12-19T09:48:02.001Z" agent="Mozilla/5.0 (Windows NT 10.0; Win64; x64) AppleWebKit/537.36 (KHTML, like Gecko) Chrome/118.0.5993.771 YaBrowser/23.11.2.771 Yowser/2.5 Safari/537.36" etag="aoQZcFq_3ODNAXe60atY" version="22.1.11" type="device">
  <diagram name="Страница — 1" id="HYVnyG0L3LqYmKeIV71l">
    <mxGraphModel dx="911" dy="513" grid="1" gridSize="10" guides="1" tooltips="1" connect="1" arrows="1" fold="1" page="1" pageScale="1" pageWidth="827" pageHeight="1169" math="0" shadow="0">
      <root>
        <mxCell id="0" />
        <mxCell id="1" parent="0" />
        <mxCell id="SIpd_2jG4-7zxkeB_w-f-4" value="Клиент" style="rounded=0;whiteSpace=wrap;html=1;" vertex="1" parent="1">
          <mxGeometry x="80" y="80" width="80" height="120" as="geometry" />
        </mxCell>
        <mxCell id="SIpd_2jG4-7zxkeB_w-f-6" value="Сервер" style="rounded=0;whiteSpace=wrap;html=1;" vertex="1" parent="1">
          <mxGeometry x="280" y="80" width="80" height="120" as="geometry" />
        </mxCell>
        <mxCell id="SIpd_2jG4-7zxkeB_w-f-7" value="БД" style="shape=cylinder3;whiteSpace=wrap;html=1;boundedLbl=1;backgroundOutline=1;size=15;" vertex="1" parent="1">
          <mxGeometry x="480" y="80" width="110" height="120" as="geometry" />
        </mxCell>
        <mxCell id="SIpd_2jG4-7zxkeB_w-f-8" value="" style="endArrow=classic;html=1;rounded=0;exitX=1;exitY=0.25;exitDx=0;exitDy=0;entryX=0;entryY=0.25;entryDx=0;entryDy=0;" edge="1" parent="1" source="SIpd_2jG4-7zxkeB_w-f-4" target="SIpd_2jG4-7zxkeB_w-f-6">
          <mxGeometry width="50" height="50" relative="1" as="geometry">
            <mxPoint x="210" y="100" as="sourcePoint" />
            <mxPoint x="260" y="50" as="targetPoint" />
          </mxGeometry>
        </mxCell>
        <mxCell id="SIpd_2jG4-7zxkeB_w-f-9" value="Запрос" style="edgeLabel;html=1;align=center;verticalAlign=middle;resizable=0;points=[];" vertex="1" connectable="0" parent="SIpd_2jG4-7zxkeB_w-f-8">
          <mxGeometry x="-0.0785" y="2" relative="1" as="geometry">
            <mxPoint as="offset" />
          </mxGeometry>
        </mxCell>
        <mxCell id="SIpd_2jG4-7zxkeB_w-f-12" value="" style="endArrow=classic;html=1;rounded=0;entryX=1;entryY=0.75;entryDx=0;entryDy=0;exitX=0;exitY=0.75;exitDx=0;exitDy=0;" edge="1" parent="1" source="SIpd_2jG4-7zxkeB_w-f-6" target="SIpd_2jG4-7zxkeB_w-f-4">
          <mxGeometry width="50" height="50" relative="1" as="geometry">
            <mxPoint x="200" y="230" as="sourcePoint" />
            <mxPoint x="170" y="160" as="targetPoint" />
          </mxGeometry>
        </mxCell>
        <mxCell id="SIpd_2jG4-7zxkeB_w-f-13" value="Ответ" style="edgeLabel;html=1;align=center;verticalAlign=middle;resizable=0;points=[];" vertex="1" connectable="0" parent="SIpd_2jG4-7zxkeB_w-f-12">
          <mxGeometry x="0.0309" y="-2" relative="1" as="geometry">
            <mxPoint as="offset" />
          </mxGeometry>
        </mxCell>
        <mxCell id="SIpd_2jG4-7zxkeB_w-f-14" value="" style="endArrow=classic;html=1;rounded=0;entryX=-0.004;entryY=0.425;entryDx=0;entryDy=0;exitX=1;exitY=0.25;exitDx=0;exitDy=0;entryPerimeter=0;" edge="1" parent="1" source="SIpd_2jG4-7zxkeB_w-f-6" target="SIpd_2jG4-7zxkeB_w-f-7">
          <mxGeometry width="50" height="50" relative="1" as="geometry">
            <mxPoint x="390" y="70" as="sourcePoint" />
            <mxPoint x="480" y="110" as="targetPoint" />
          </mxGeometry>
        </mxCell>
        <mxCell id="SIpd_2jG4-7zxkeB_w-f-17" value="" style="endArrow=classic;html=1;rounded=0;entryX=1;entryY=0.75;entryDx=0;entryDy=0;exitX=-0.004;exitY=0.631;exitDx=0;exitDy=0;exitPerimeter=0;" edge="1" parent="1" source="SIpd_2jG4-7zxkeB_w-f-7" target="SIpd_2jG4-7zxkeB_w-f-6">
          <mxGeometry width="50" height="50" relative="1" as="geometry">
            <mxPoint x="510" y="190" as="sourcePoint" />
            <mxPoint x="390" y="190" as="targetPoint" />
          </mxGeometry>
        </mxCell>
      </root>
    </mxGraphModel>
  </diagram>
</mxfile>
